# xmcd
#
# Track frame offsets:
#	150
#	22602
#	51165
#	71895
#	100510
#	122302
#	130762
#	154107
#	184652
#	208867
#	225960
#	249307
#
# Disc length: 3712 seconds
#
# Revision: 0
# Processed by: cddbd v1.5.1PL2 Copyright (c) Steve Scherf et al.
# Submitted via: dBpowerAMP V4.0
#
DISCID=8d0e7e0c
DTITLE=Dorothy Norwood - Live at Home
DYEAR=1900
DGENRE=Gospel
TTITLE0=I Am
TTITLE1=I Bind You Up Part I
TTITLE2=I Bind You Up Part II
TTITLE3=Will You Meet Me There
TTITLE4=World Trade Center Miracle
TTITLE5=There Goes Another Blessing
TTITLE6=Don't You Give Up
TTITLE7=Sarcrifice of Praise
TTITLE8=Till We Meet Again
TTITLE9=Too Blessed To Be Stressed
TTITLE10=You Ain't Seen Nothing Yet
TTITLE11=Down Old School Boulevard
EXTD=
EXTT0=
EXTT1=
EXTT2=
EXTT3=
EXTT4=
EXTT5=
EXTT6=
EXTT7=
EXTT8=
EXTT9=
EXTT10=
EXTT11=
PLAYORDER=
